<svg preserveAspectRatio="none" overflow="visible" style="display: block;" width="35.5956" height="35.5956" viewBox="0 0 35.5956 35.5956" fill="none" xmlns="http://www.w3.org/2000/svg">
<g id="Group 11063">
<path id="Vector" d="M15.4759 0.0225051C14.4512 0.0468689 13.6995 0.0828946 12.3214 0.167871C11.684 0.205902 10.9882 0.261909 10.4983 0.310934C10.3753 0.324304 10.118 0.348965 9.92787 0.366941C9.12924 0.445306 7.9435 0.59498 7.44477 0.68003C7.33945 0.698006 7.18512 0.722667 7.09807 0.736037C7.01303 0.747328 6.86078 0.773994 6.76237 0.792044C6.66403 0.81002 6.49841 0.841366 6.39339 0.859045C6.02404 0.921737 5.39563 1.04935 5.03995 1.1344C4.94131 1.15906 4.76462 1.2014 4.64831 1.22844C4.53193 1.25511 4.42699 1.27977 4.41362 1.28207C3.75788 1.4385 3.10689 1.75419 2.60586 2.16355C2.11812 2.55961 1.68207 3.19945 1.46275 3.83484C1.4271 3.93327 1.39108 4.03391 1.38009 4.05858C1.34206 4.14363 1.17644 4.85939 1.05775 5.44583C1.04008 5.54417 1.00873 5.68954 0.99076 5.77021C0.972712 5.85058 0.948425 5.99156 0.93268 6.0833C0.919088 6.17496 0.901337 6.28697 0.890048 6.32931C0.856403 6.45707 0.720041 7.32949 0.632699 7.96265C0.547733 8.57576 0.491732 9.02114 0.442713 9.47291C0.418055 9.69426 0.393397 9.91131 0.389015 9.95394C0.382331 9.99628 0.362055 10.2134 0.342002 10.4351C0.324028 10.6564 0.297365 10.9272 0.283699 11.0392C0.236685 11.4506 0.120302 13.2429 0.062371 14.5071C0.0176598 15.4443 -0.0113803 17.4513 0.00429094 18.5455C0.0199621 19.9101 0.0533099 21.1296 0.0846523 21.5547C0.0960157 21.7268 0.118297 22.0895 0.131666 22.3602C0.145035 22.6308 0.163008 22.9776 0.174298 23.1319C0.225693 23.9061 0.266022 24.4139 0.286001 24.5749C0.297365 24.6735 0.324028 24.9353 0.342002 25.1544C0.359975 25.3737 0.386713 25.6355 0.398002 25.7361C0.411371 25.8368 0.436029 26.0538 0.453705 26.2195C0.509706 26.7497 0.552337 27.0964 0.588062 27.327C0.606035 27.45 0.637378 27.6604 0.655054 27.7968C0.720041 28.2889 0.796021 28.7676 0.878759 29.2064C0.896732 29.3047 0.925772 29.4705 0.946048 29.5755C0.984075 29.7991 1.07134 30.2445 1.13403 30.5263C1.34867 31.5132 1.4427 31.8082 1.69544 32.2939C1.76474 32.428 1.85416 32.5846 1.89449 32.6406C1.93244 32.6967 1.98844 32.777 2.01748 32.8197C2.14508 33.0097 2.50983 33.3811 2.71118 33.5245C2.74452 33.5489 2.80951 33.5958 2.85184 33.6295C2.89685 33.6652 2.93919 33.6922 2.95048 33.6922C2.95946 33.6922 2.98182 33.7078 2.9995 33.7259C3.08684 33.8109 3.70217 34.104 3.96591 34.1823C4.01523 34.1979 4.07561 34.2179 4.10027 34.2293C4.15857 34.256 4.48722 34.3387 4.88331 34.4283C5.05562 34.4687 5.23231 34.511 5.27472 34.5223C5.37766 34.549 6.02634 34.6787 6.51638 34.7684C6.79809 34.8197 7.34643 34.9071 7.69075 34.9564C7.82051 34.9741 7.98613 34.9987 8.05988 35.0121C8.33053 35.0591 9.4492 35.1891 10.1516 35.2561C10.4043 35.2808 10.7153 35.3098 10.845 35.3231C11.0553 35.3455 11.27 35.3634 12.2991 35.4372C12.4534 35.4485 12.8048 35.4686 13.0821 35.4821C13.3595 35.4955 13.7465 35.5156 13.9435 35.5269C15.5362 35.6185 20.0909 35.6185 21.6613 35.5269C21.8583 35.5135 22.2453 35.4955 22.5227 35.4821C22.9991 35.4599 23.1737 35.4485 23.9208 35.3925C24.8781 35.3188 26.2856 35.1821 26.7619 35.1151C26.8983 35.0951 27.1333 35.0637 27.2876 35.0435C27.858 34.9698 28.6411 34.8511 29.0884 34.7684C29.5784 34.6787 30.2271 34.549 30.3301 34.5223C30.3725 34.511 30.5492 34.4687 30.7216 34.4283C31.1085 34.341 31.4442 34.256 31.5045 34.2293C31.5788 34.2025 31.6534 34.1763 31.7282 34.1509C31.9116 34.0906 32.5203 33.8019 32.5716 33.7525C32.5872 33.7369 32.632 33.7035 32.67 33.6809C32.8446 33.5714 32.925 33.5088 33.084 33.3655C33.263 33.2021 33.5113 32.9338 33.5716 32.842C33.5917 32.8107 33.6454 32.7347 33.69 32.6743C33.737 32.6117 33.7751 32.5557 33.7751 32.5467C33.7751 32.5376 33.811 32.475 33.8533 32.4079C33.896 32.3409 33.9474 32.2423 33.9677 32.1886C33.99 32.1373 34.0123 32.0812 34.0213 32.0703C34.0637 32.0142 34.2204 31.5689 34.2874 31.3161C34.3927 30.9246 34.5894 30.0006 34.661 29.5641C34.679 29.4524 34.6991 29.3474 34.7057 29.3294C34.726 29.2801 34.8491 28.5126 34.9607 27.7298C34.9854 27.5575 35.01 27.3851 35.0167 27.3494C35.0348 27.2464 35.1151 26.5596 35.1511 26.1972C35.1688 26.0182 35.1934 25.8122 35.2068 25.7384C35.2204 25.6644 35.2448 25.423 35.2628 25.2014C35.2808 24.98 35.3054 24.707 35.3165 24.5973C35.3298 24.4855 35.3501 24.2305 35.3634 24.0268C35.3768 23.8231 35.3971 23.5727 35.4081 23.4675C35.4217 23.3624 35.4462 22.9753 35.4641 22.6062C35.4844 22.2369 35.5068 21.7827 35.5201 21.5994C35.6208 19.9727 35.6208 15.7039 35.5201 14.026C35.5088 13.8357 35.4888 13.4623 35.4754 13.1982C35.4618 12.9341 35.4418 12.5851 35.4305 12.4261C35.4171 12.2651 35.3882 11.869 35.3634 11.5426C35.3388 11.2159 35.3141 10.9092 35.3074 10.8602C35.3007 10.8108 35.2808 10.5938 35.2628 10.379C35.2448 10.1644 35.2248 9.96293 35.2181 9.93166C35.2114 9.90032 35.1867 9.69426 35.1621 9.47291C35.1041 8.93809 35.0324 8.34764 35.0167 8.27834C35.01 8.24699 34.9854 8.06798 34.9607 7.88429C34.8511 7.04775 34.6477 5.88192 34.4731 5.0878C34.4484 4.97578 34.4084 4.79469 34.3837 4.68505C34.321 4.39863 34.2471 4.10998 34.2227 4.05858C34.2114 4.03391 34.1913 3.9736 34.1757 3.92428C34.1264 3.75886 33.878 3.20614 33.8154 3.11879C33.8063 3.10542 33.735 3.00038 33.6587 2.88406C33.5 2.64466 33.093 2.21955 32.849 2.04054C32.3659 1.68481 31.8289 1.44311 31.1355 1.27308C31.016 1.24387 30.8967 1.21398 30.7776 1.18342C30.6948 1.15906 30.5291 1.12311 30.1734 1.04935C30.0727 1.02821 29.972 1.00655 29.8714 0.984355C29.4397 0.879323 28.0347 0.650987 27.1199 0.534665C26.9363 0.512306 26.7553 0.487646 26.7172 0.478955C26.6499 0.465287 26.3256 0.431936 25.6658 0.366941C25.4822 0.348965 25.2295 0.322224 25.1065 0.310934C24.9835 0.297563 24.7619 0.277508 24.6145 0.263915C24.4667 0.252921 24.2251 0.232568 24.0775 0.221575C23.5764 0.178938 22.185 0.0985676 21.4153 0.0648446C19.9275 -7.60177e-05 17.1804 -0.0201316 15.4759 0.0225051ZM5.61933 15.1402C5.6327 15.1512 5.69769 15.1716 5.76238 15.1872C5.88337 15.2162 6.05337 15.2946 6.18068 15.3796C6.28139 15.4466 6.51868 15.7016 6.5654 15.7913C6.58805 15.836 6.61241 15.8764 6.6191 15.883C6.62608 15.8897 6.64606 15.9344 6.66403 15.9837C6.6797 16.0327 6.69968 16.0844 6.71104 16.0954C6.74001 16.138 6.77373 16.4041 6.77373 16.6012C6.77373 16.7936 6.74439 17.0195 6.70644 17.1023C6.58575 17.3796 6.52745 17.4713 6.37541 17.6326C6.23437 17.778 6.17637 17.8227 5.98401 17.9167C5.82729 17.995 5.71537 18.0354 5.62602 18.0441C5.55435 18.053 5.49166 18.0687 5.48498 18.0778C5.46938 18.1047 4.98394 18.1047 4.98394 18.0778C4.98394 18.0687 4.92794 18.053 4.85627 18.0441C4.78698 18.0354 4.69993 18.0151 4.66191 17.9994C4.6134 17.9776 4.56415 17.9574 4.51425 17.939C4.47162 17.9234 4.43129 17.9054 4.42461 17.8987C4.41792 17.8898 4.38428 17.8697 4.34625 17.8518C4.21658 17.787 3.94816 17.4893 3.86988 17.3259C3.82725 17.2386 3.78721 17.1536 3.77593 17.1359C3.69987 16.9836 3.6865 16.2901 3.75788 16.1291C3.77823 16.0864 3.80719 16.015 3.82287 15.9723C3.83854 15.93 3.85651 15.8896 3.86319 15.883C3.86988 15.8764 3.89662 15.8313 3.92127 15.7823C3.96391 15.6993 4.22994 15.413 4.26797 15.413C4.27688 15.413 4.29723 15.3973 4.31291 15.3773C4.35524 15.3302 4.57226 15.2252 4.70431 15.1916C4.76692 15.1759 4.83629 15.1535 4.86095 15.1422C4.88561 15.1313 4.94592 15.12 4.99501 15.1133C5.12699 15.0999 5.59029 15.12 5.61933 15.1402ZM29.9944 16.6995V17.8293H25.6546V16.3171L25.8962 16.2788C26.4309 16.1961 26.7642 16.1401 26.7843 16.1267C26.7977 16.1178 26.9073 16.1 27.0303 16.0844C27.1533 16.0687 27.2653 16.0484 27.2763 16.0394C27.2899 16.0307 27.3949 16.0104 27.5113 15.9948C27.6276 15.9814 27.7797 15.9544 27.847 15.9367C27.914 15.9211 28.055 15.8963 28.16 15.883C28.2653 15.8694 28.3704 15.8494 28.395 15.8403C28.4197 15.8293 28.5314 15.8091 28.6411 15.7934C28.753 15.78 28.8781 15.76 28.9207 15.7464C28.963 15.7353 29.1244 15.704 29.2787 15.6793C29.4331 15.6546 29.6344 15.6213 29.7261 15.6056C29.8177 15.5876 29.9162 15.5743 29.9452 15.572L29.9944 15.5697V16.6995ZM11.4714 17.6973V19.0376H13.7084V21.0289H11.4693L11.4781 23.103C11.485 25.338 11.4803 25.2283 11.6014 25.5034C11.693 25.7161 11.9524 25.9331 12.1761 25.9868C12.2141 25.9958 12.2567 26.0135 12.2747 26.0271C12.317 26.0606 13.2231 26.0606 13.2635 26.0248C13.2811 26.0115 13.3618 25.9935 13.4468 25.9845L13.5968 25.9688V27.9312L13.5362 27.9579C13.4805 27.9825 13.2231 28.0228 12.8698 28.0652C12.3664 28.1235 11.449 28.1302 11.3953 28.0741C11.382 28.0632 11.3463 28.0542 11.3127 28.0542C11.2253 28.0542 10.8629 27.9869 10.836 27.9668C10.8226 27.9579 10.7623 27.9355 10.6996 27.9222C10.6393 27.9065 10.5789 27.8861 10.5653 27.8775C10.5543 27.8662 10.503 27.8461 10.4536 27.8304C10.4043 27.8148 10.3596 27.7945 10.3529 27.7878C10.3462 27.7811 10.3059 27.7565 10.2633 27.7318C10.0776 27.6334 10.0219 27.5978 9.92327 27.5147C9.86526 27.4678 9.81157 27.4278 9.80028 27.4278C9.77792 27.4254 9.60792 27.2397 9.47386 27.0697C9.37092 26.9377 9.21858 26.685 9.16719 26.555C9.14922 26.5126 9.12924 26.4722 9.12255 26.4655C9.11357 26.4589 9.09121 26.3896 9.06886 26.3089C9.04858 26.2285 9.02184 26.1435 9.01055 26.1188C8.99956 26.0941 8.97253 25.9935 8.95485 25.8951C8.93589 25.8016 8.91569 25.7084 8.89424 25.6154C8.87857 25.5484 8.86751 24.7606 8.86082 23.2707L8.85191 21.0289H7.55647V19.0376H8.85421V16.7822L9.00617 16.7666C9.08891 16.7578 9.16719 16.7422 9.17848 16.7332C9.19185 16.7242 9.30155 16.7042 9.42454 16.6885C9.54753 16.6729 9.65953 16.6502 9.6706 16.6415C9.68397 16.6325 9.82493 16.6078 9.98388 16.5878C10.1449 16.5651 10.2859 16.5408 10.2969 16.5318C10.3103 16.5228 10.3843 16.5071 10.4646 16.5005C10.5698 16.4878 10.6743 16.4707 10.778 16.4491C11.0174 16.3998 11.4357 16.3347 11.4557 16.3461C11.4647 16.3505 11.4714 16.9592 11.4714 17.6973ZM18.8874 18.8249C19.2005 18.8429 19.5542 18.8832 19.5808 18.9033C19.5942 18.9122 19.6479 18.9279 19.7039 18.9346C19.8315 18.9549 20.1425 19.0465 20.3302 19.1225C20.4869 19.1853 20.8359 19.3596 20.8895 19.4046C20.9076 19.418 20.9476 19.4447 20.979 19.4583C21.0102 19.4739 21.1089 19.552 21.1959 19.6284C21.2833 19.7067 21.3639 19.7737 21.3749 19.7781C21.4086 19.7937 21.8066 20.2771 21.8066 20.3038C21.8066 20.3105 21.827 20.3465 21.8517 20.3799C21.8986 20.4472 22.0976 20.8342 22.0976 20.8589C22.0976 20.8676 22.1156 20.9169 22.14 20.9683C22.1623 21.0199 22.1893 21.0983 22.1983 21.1406C22.2073 21.1833 22.223 21.228 22.2317 21.2413C22.2406 21.2527 22.261 21.324 22.2766 21.398C22.29 21.4717 22.308 21.5481 22.3147 21.5657C22.3236 21.5837 22.3436 21.6798 22.3617 21.7784C22.3884 21.9261 22.395 22.4832 22.404 24.9487L22.413 27.9421H19.9724L19.9702 27.6782C19.9678 27.5351 19.9612 27.327 19.9522 27.2173L19.9388 27.016L19.8739 27.1054C19.7712 27.2421 19.4332 27.5641 19.2991 27.6535C19.0058 27.8461 18.9277 27.8928 18.8471 27.9199C18.7978 27.9332 18.7331 27.9602 18.7017 27.9778C18.6681 27.9936 18.5854 28.0205 18.5181 28.0339C18.4511 28.0495 18.3841 28.0698 18.3728 28.0785C18.2588 28.1636 16.8493 28.1615 16.7396 28.0765C16.7287 28.0675 16.648 28.0476 16.5607 28.0318C16.4757 28.0162 16.375 27.9915 16.337 27.9735C16.3014 27.9579 16.205 27.9175 16.1269 27.8861C16.037 27.847 15.9489 27.8038 15.863 27.7565C15.8035 27.7197 15.743 27.6847 15.6816 27.6514C15.5876 27.5998 15.5563 27.5707 15.3013 27.3157C15.0396 27.054 15.0059 27.0183 15.0059 26.9937C15.0059 26.9847 14.9769 26.9354 14.9436 26.884C14.9075 26.8326 14.8562 26.7386 14.8292 26.678C14.8025 26.6156 14.7666 26.5416 14.7509 26.5103C14.7332 26.4789 14.7086 26.3985 14.6929 26.3312C14.6772 26.2642 14.6572 26.1972 14.6482 26.1859C14.6235 26.1545 14.5809 25.8368 14.5809 25.6981C14.5809 25.6335 14.5699 25.5684 14.5565 25.5551C14.5296 25.5281 14.5362 25.4387 14.6055 24.8993C14.6189 24.7942 14.6392 24.698 14.6482 24.6869C14.6572 24.6735 14.6771 24.6152 14.6905 24.5549C14.7195 24.4385 14.7802 24.2865 14.8428 24.1721C14.8629 24.1342 14.8896 24.0828 14.9032 24.0558C14.9166 24.0269 14.9346 24.0045 14.9456 24.0045C14.9545 24.0045 14.9612 23.9911 14.9612 23.9755C14.9612 23.9508 15.2073 23.6308 15.2499 23.6018C15.2588 23.5951 15.2746 23.5728 15.2813 23.5504C15.2902 23.5257 15.3169 23.5034 15.3416 23.4967C15.3662 23.49 15.3863 23.4764 15.3863 23.4674C15.3863 23.4451 15.7622 23.1497 15.8896 23.0759C15.9813 23.02 16.1873 22.915 16.487 22.7716C16.5296 22.7493 16.9477 22.6152 17.1314 22.5636C17.1983 22.5436 17.3304 22.5165 17.4221 22.5032C17.5137 22.4876 17.601 22.4696 17.6123 22.4609C17.6257 22.4518 17.7598 22.4315 17.9144 22.4182C18.0687 22.4048 18.2588 22.3825 18.3394 22.3712C18.6571 22.3242 19.7732 22.3332 19.8919 22.3825C19.9322 22.4002 19.9342 22.3914 19.9186 22.2011C19.9098 22.0915 19.8942 21.9975 19.8852 21.9908C19.8739 21.9841 19.8605 21.9417 19.8515 21.8968C19.8359 21.8141 19.7508 21.633 19.6705 21.5097C19.6188 21.4317 19.4018 21.2076 19.3772 21.2076C19.3685 21.2076 19.3304 21.1854 19.2922 21.1563C19.1938 21.0846 19.0351 21.0133 18.9388 20.9953C18.8918 20.9863 18.8538 20.9706 18.8538 20.9616C18.8538 20.8633 17.4087 20.8476 16.9747 20.9439C16.9187 20.9549 16.789 20.9795 16.6839 20.9976C16.5786 21.0153 16.4736 21.0399 16.449 21.0513C16.4243 21.0623 16.3439 21.0826 16.27 21.0959C16.1963 21.1093 16.1156 21.1296 16.091 21.1406C16.0663 21.1519 15.977 21.1766 15.8919 21.1966C15.807 21.2167 15.7263 21.239 15.7129 21.2503C15.6996 21.2593 15.6392 21.2816 15.5766 21.2973C15.5163 21.313 15.4536 21.3353 15.4423 21.3443C15.4289 21.3533 15.3685 21.3733 15.3079 21.389C15.2455 21.4024 15.1582 21.4337 15.1136 21.456C15.0665 21.4807 15.0239 21.4987 15.0172 21.4987C15.0105 21.4987 15.0059 21.0309 15.0059 20.4605C15.0059 19.6527 15.0128 19.4179 15.0352 19.4C15.0509 19.3866 15.1136 19.3643 15.1739 19.3486C15.2365 19.3353 15.2969 19.315 15.3079 19.306C15.3216 19.297 15.3953 19.2703 15.4759 19.25C15.5563 19.2276 15.6323 19.2032 15.6436 19.1943C15.657 19.1829 15.7263 19.1649 15.798 19.1496C15.8719 19.134 15.948 19.1136 15.9657 19.1025C15.9859 19.0936 16.0776 19.0689 16.1693 19.0489C16.2406 19.035 16.3115 19.0193 16.382 19.0019C16.4063 18.9949 16.5317 18.9749 16.6614 18.9569C16.7913 18.9392 16.9277 18.9145 16.9634 18.9033C17.0933 18.8631 18.2654 18.7892 18.5294 18.8049C18.6031 18.8092 18.7644 18.8183 18.8874 18.825V18.8249ZM6.54973 23.49V27.9421H3.93256V19.0376H6.54973V23.49ZM26.3256 21.8118C26.3256 24.4609 26.3369 24.9733 26.3906 25.0449C26.4016 25.056 26.4152 25.1006 26.4242 25.1434C26.4556 25.311 26.6009 25.5551 26.7662 25.7205C26.8536 25.8101 26.9519 25.8884 26.9833 25.8971C27.0169 25.9041 27.0416 25.9175 27.0416 25.9265C27.0416 25.9352 27.1199 25.9665 27.216 25.9978C27.3593 26.0428 27.4353 26.0515 27.659 26.0515C27.8157 26.0515 27.952 26.0405 27.9833 26.0271C28.0123 26.0115 28.0817 25.9891 28.1377 25.9734C28.1937 25.9578 28.2944 25.9108 28.3614 25.8658C28.4867 25.7854 28.7194 25.5708 28.7194 25.5347C28.7194 25.5237 28.7507 25.4744 28.7864 25.4274C28.8244 25.3781 28.8537 25.3291 28.8537 25.3157C28.8537 25.302 28.8738 25.2551 28.896 25.2104C28.9207 25.1656 28.9474 25.0897 28.9564 25.0426C28.9631 24.9933 28.9787 24.9443 28.9901 24.933C29.0461 24.8613 29.0551 24.4095 29.0551 21.785V19.0376H31.6722V27.9422H30.4329C29.4644 27.9422 29.1868 27.9355 29.1735 27.9132C29.1645 27.8998 29.1535 27.6871 29.1489 27.4434C29.1444 27.2017 29.1332 27.0027 29.1244 27.0027C29.1155 27.0027 29.0885 27.0294 29.0618 27.063C28.9364 27.2331 28.7395 27.4255 28.4308 27.6805C28.3861 27.7161 28.2944 27.7654 28.0931 27.8639C28.0014 27.9085 27.9007 27.9601 27.8694 27.9758C27.8381 27.9915 27.7531 28.0161 27.679 28.0318C27.6054 28.0475 27.5404 28.0675 27.5337 28.0765C27.5114 28.1099 27.1154 28.1435 26.724 28.1435C26.3393 28.1435 26.026 28.1168 25.9343 28.0785C25.9096 28.0675 25.8246 28.0406 25.744 28.0205C25.6636 28.0005 25.5896 27.9735 25.5763 27.9645C25.5653 27.9555 25.5116 27.9332 25.46 27.9175C25.4063 27.9041 25.3639 27.8841 25.3639 27.8751C25.3639 27.8662 25.3236 27.8462 25.2743 27.8304C25.2253 27.8148 25.1849 27.7945 25.1849 27.7855C25.1849 27.7768 25.1602 27.7588 25.1312 27.7454C24.9389 27.6581 24.5025 27.2487 24.3192 26.9847C24.2072 26.8236 24.0349 26.5013 23.9992 26.3829C23.9858 26.3358 23.9589 26.2665 23.9432 26.2306C23.9275 26.1926 23.9009 26.1122 23.8872 26.0516C23.8738 25.9892 23.8538 25.9241 23.8425 25.9018C23.8315 25.8815 23.8111 25.7764 23.7979 25.6668C23.7845 25.5594 23.7598 25.4498 23.7465 25.4251C23.7262 25.3917 23.7172 24.5929 23.7128 22.2078L23.7061 19.0376H26.3257L26.3256 21.8118Z" fill="white"/>
<path id="Vector_2" d="M18.639 23.7503C18.5257 23.7609 18.4097 23.778 18.3842 23.7887C18.3587 23.8017 18.2754 23.8209 18.1988 23.8359C18.1249 23.8487 18.0251 23.8745 17.9788 23.8937C17.631 24.033 17.4619 24.1253 17.3462 24.2368C17.235 24.3441 17.1235 24.5434 17.1052 24.6677C17.1004 24.7105 17.0841 24.7663 17.0704 24.7897C17.0448 24.8392 17.0541 24.9913 17.0959 25.1906C17.1421 25.4071 17.3276 25.6709 17.4919 25.7502C17.7841 25.8895 17.8397 25.9108 18.002 25.9345C18.2937 25.9751 18.85 25.9518 18.9705 25.8917C18.9913 25.8809 19.0772 25.8445 19.1604 25.8102C19.244 25.7739 19.3528 25.7157 19.4038 25.6793C19.4549 25.6429 19.5126 25.6001 19.5336 25.585C19.6656 25.493 19.909 25.12 19.9414 24.9657C19.9484 24.927 19.967 24.882 19.9808 24.8647C19.997 24.8455 20.0085 24.6482 20.0133 24.2945L20.0225 23.7544L19.8973 23.7416C19.728 23.7222 18.8941 23.7288 18.639 23.7503Z" fill="white"/>
</g>
</svg>
