<svg preserveAspectRatio="none" overflow="visible" style="display: block;" width="159.215" height="36.8984" viewBox="0 0 159.215 36.8984" fill="none" xmlns="http://www.w3.org/2000/svg">
<g id="g2997">
<path id="path3001" fill-rule="evenodd" clip-rule="evenodd" d="M48.7034 24.6551L44.5803 14.1428H50.2862L48.722 24.6979L48.7034 24.6551ZM26.8609 0.522792L43.7739 36.1494H56.5614L63.692 0.522792H52.4662L51.6388 5.27125H40.7478L38.2424 0.522792H26.8609ZM69.0073 0.522792L73.9067 36.1494H85.2184L80.3214 0.522792H69.0073ZM144.243 24.6979L140.104 14.1428H145.807L144.243 24.6979ZM122.382 0.522792L139.297 36.1494H152.082L159.215 0.522792H147.987L147.162 5.27125H136.269L133.763 0.522792H122.382Z" fill="#0070AF"/>
<path id="path3003" fill-rule="evenodd" clip-rule="evenodd" d="M97.3738 17.1825H111.549L121.262 0.725792H107.084L97.3738 17.1825Z" fill="#0070AF"/>
<path id="path3005" fill-rule="evenodd" clip-rule="evenodd" d="M98.8472 19.7102H113.499L126.224 36.098H111.572L98.8472 19.7102Z" fill="#F6822A"/>
<path id="path3007" fill-rule="evenodd" clip-rule="evenodd" d="M84.198 0.626836H98.8472L111.572 17.2144H96.9205L84.198 0.626836Z" fill="#F6822A"/>
<path id="path3009" fill-rule="evenodd" clip-rule="evenodd" d="M89.4808 36.2977H103.154L112.523 19.7102H98.8472L89.4808 36.2977Z" fill="#0070AF"/>
<path id="path3011" fill-rule="evenodd" clip-rule="evenodd" d="M27.1956 34.8757L26.1079 24.3967C21.9385 30.2817 12.2751 26.2205 11.5163 18.8897C10.552 9.58538 19.8524 7.4168 24.9132 12.8953L23.8232 2.39253C22.3127 1.63401 20.8355 1.0443 19.3775 0.647203C17.9275 0.247733 16.4742 0.03612 15.0323 0.00520864C13.2194 -0.035214 11.5769 0.159781 10.0971 0.585407C8.61734 1.0039 7.27816 1.66968 6.0933 2.56848C3.80818 4.27812 2.15593 6.45142 1.13818 9.09553C0.120426 11.7492 -0.214487 14.7428 0.132279 18.0884C0.411876 20.7777 1.0738 23.2292 2.12874 25.4524C3.17462 27.6733 4.6235 29.6944 6.46842 31.5253C8.21248 33.2706 10.1118 34.5879 12.167 35.482C14.2144 36.3689 16.4486 36.8421 18.8637 36.8944C20.3063 36.9253 21.7217 36.7779 23.0953 36.4379C24.4763 36.1002 25.8383 35.5724 27.1956 34.8757Z" fill="#0070AF"/>
</g>
</svg>
