<svg preserveAspectRatio="none" overflow="visible" style="display: block;" width="40" height="40" viewBox="0 0 40 40" fill="none" xmlns="http://www.w3.org/2000/svg">
<g id="FileDoc">
<g clip-path="url(#clip0_0_10)">
<rect width="40" height="40" rx="5" fill="#0A410A"/>
<g id="Vector">
</g>
<g id="Group 11065">
<path id="Vector_2" d="M9.14319 24.0119V31.0176H11.1448C12.0738 31.0176 12.9648 30.6485 13.6217 29.9916C14.2786 29.3347 14.6476 28.4438 14.6476 27.5148C14.6476 26.5857 14.2786 25.6948 13.6217 25.0379C12.9648 24.381 12.0738 24.0119 11.1448 24.0119H9.14319Z" stroke="#9AFF9A" stroke-width="1.60129" stroke-linecap="round" stroke-linejoin="round"/>
<path id="Vector_3" d="M31.6614 30.1256C31.406 30.4027 31.0968 30.6248 30.7526 30.7782C30.4084 30.9315 30.0365 31.013 29.6598 31.0176C28.0009 31.0176 26.6573 29.4488 26.6573 27.5148C26.6573 25.5807 28.0009 24.0119 29.6598 24.0119C30.0365 24.0165 30.4084 24.098 30.7526 24.2513C31.0968 24.4047 31.406 24.6268 31.6614 24.9039" stroke="#9AFF9A" stroke-width="1.60129" stroke-linecap="round" stroke-linejoin="round"/>
<path id="Vector_4" d="M10.6444 19.0079V10.0006C10.6444 9.73517 10.7498 9.48061 10.9375 9.29292C11.1252 9.10524 11.3798 8.99979 11.6452 8.99979H23.6549L30.6606 16.0055V19.0079" stroke="#9AFF9A" stroke-width="1.60129" stroke-linecap="round" stroke-linejoin="round"/>
<path id="Vector_5" d="M23.6549 8.99979V16.0055H30.6606" stroke="#9AFF9A" stroke-width="1.60129" stroke-linecap="round" stroke-linejoin="round"/>
<path id="Vector_6" d="M20.6525 31.0176C22.3107 31.0176 23.6549 29.4493 23.6549 27.5148C23.6549 25.5802 22.3107 24.0119 20.6525 24.0119C18.9943 24.0119 17.6501 25.5802 17.6501 27.5148C17.6501 29.4493 18.9943 31.0176 20.6525 31.0176Z" stroke="#9AFF9A" stroke-width="1.60129" stroke-linecap="round" stroke-linejoin="round"/>
</g>
</g>
</g>
<defs>
<clipPath id="clip0_0_10">
<rect width="40" height="40" rx="5" fill="white"/>
</clipPath>
</defs>
</svg>
